<?xml version="1.0"?>
<svg xmlns="http://www.w3.org/2000/svg" viewBox="0 0 64 64" width="512" height="512"><g id="Brickwall"><path d="M61,42a1,1,0,0,0,0-2H52V31a1,1,0,0,0-1-1H39V21a1,1,0,0,0-1-1H28V11a1,1,0,0,0-1-1H15V3a1,1,0,0,0-2,0v7H3a1,1,0,0,0-1,1V21a1,1,0,0,0,1,1H13v8H3a1,1,0,0,0-1,1V41a1,1,0,0,0,1,1H13v8H3a1,1,0,0,0-1,1V61a1,1,0,0,0,1,1H51a1,1,0,0,0,1-1V52h9a1,1,0,0,0,0-2H39V42ZM50,40H28V32H50ZM4,12H26v8H4ZM15,22H37v8H15ZM4,32H26v8H4ZM4,52H26v8H4Zm46,0v8H28V52ZM37,50H15V42H37Z"/><path d="M42.809,27.294a1,1,0,0,0,.386-.077l11.969-5a1,1,0,0,0,.321-1.63l-2.828-2.829.84-.84a2.007,2.007,0,0,0,0-2.834L52.417,13,53.6,11.819A2.962,2.962,0,0,0,57,11.243L61.243,7A3,3,0,0,0,57,2.757L52.757,7a3,3,0,0,0-.576,3.4L51,11.583a2.007,2.007,0,0,0,0,2.834l1.08,1.086-.84.84-2.829-2.828a1,1,0,0,0-1.634.331l-4.9,12.072a1,1,0,0,0,.927,1.376ZM54.171,8.414l4.243-4.242a1,1,0,1,1,1.415,1.414L55.586,9.828a1,1,0,1,1-1.415-1.414ZM48.066,16l1.762,1.762-1.535,1.535a1,1,0,1,0,1.414,1.414l1.536-1.536,1.774,1.774-8.379,3.5Z"/></g></svg>
