<svg height="512pt" viewBox="0 -2 512.00003 512" width="512pt" xmlns="http://www.w3.org/2000/svg"><path d="m240.664062 351.242188h-.339843c-10.210938.003906-18.484375 8.285156-18.476563 18.496093 0 4.78125 1.855469 9.375 5.175782 12.820313l6.414062 6.652344 26.621094-25.65625-6.414063-6.65625c-3.398437-3.539063-8.070312-5.578126-12.980469-5.65625zm0 0"/><path d="m73.945312 342v38.292969c0 14.316406 8.46875 26.40625 18.488282 26.40625h18.484375c10.019531 0 18.488281-12.089844 18.488281-26.40625v-38.292969h-18.488281v46.214844h-18.484375v-46.214844zm0 0"/><path d="m221.835938 444.941406h39.617187l-39.617187-41.113281zm0 0"/><path d="m147.890625 342v38.292969c0 24.753906-16.582031 44.894531-36.972656 44.894531h-18.484375c-20.390625 0-36.972656-20.140625-36.972656-44.894531v-38.292969c-30.617188.027344-55.429688 24.839844-55.460938 55.457031v55.460938h203.351562v-55.460938c-.03125-30.617187-24.84375-55.429687-55.460937-55.457031zm0 0"/><path d="m340.167969 491.738281 26.925781 9.53125-8.53125-27.257812zm0 0"/><path d="m246.269531 402.5 26.621094-25.660156 12.828125 13.308594-26.621094 25.660156zm0 0"/><path d="m462.160156 427.3125 34.515625-37.832031h-34.515625zm0 0"/><path d="m483.679688 126.714844c2.140624-10.414063 2.117187-21.160156-.066407-31.566406l-1.332031-6.523438 29.71875-17.15625-18.488281-32.019531-29.753907 17.183593-4.980468-4.417968c-7.921875-7.066406-17.199219-12.441406-27.265625-15.796875l-6.324219-2.105469v-34.3125h-36.972656v34.3125l-6.324219 2.105469c-10.066406 3.351562-19.339844 8.722656-27.257813 15.789062l-4.980468 4.425781-29.761719-17.183593-18.488281 32.019531 29.652344 17.117188-1.332032 6.535156c-2.117187 10.425781-2.117187 21.171875 0 31.59375l1.332032 6.535156-29.652344 17.117188 18.488281 32.019531 29.761719-17.183594 4.980468 4.429687c7.917969 7.0625 17.191407 12.433594 27.257813 15.785157l6.324219 2.109375v34.308594h36.972656v-34.308594l6.324219-2.109375c10.066406-3.351563 19.339843-8.722657 27.257812-15.785157l4.980469-4.429687 29.761719 17.183594 14.863281-25.742188v-8.320312l-26.027344-15.027344zm-76.980469 39.664062c-30.628907 0-55.457031-24.832031-55.457031-55.460937 0-30.628907 24.828124-55.460938 55.457031-55.460938 30.632812 0 55.460937 24.832031 55.460937 55.460938-.03125 30.617187-24.84375 55.429687-55.460937 55.460937zm0 0"/><path d="m271.886719 429.132812 26.621093-25.65625 51.308594 53.242188-26.621094 25.652344zm0 0"/><path d="m46.214844 508.375h110.917968c22.34375 0 46.21875-9.714844 46.21875-36.972656h-203.351562c0 27.257812 23.875 36.972656 46.214844 36.972656zm0 0"/><path d="m502.90625 123.777344 5.46875 3.148437v-6.765625h-5.230469c-.109375 1.203125-.082031 2.414063-.238281 3.617188zm0 0"/><path d="m406.699219 73.945312c-16.804688.0625-31.457031 11.457032-35.660157 27.730469h71.324219c-4.203125-16.273437-18.855469-27.667969-35.664062-27.730469zm0 0"/><path d="m465.859375 187.757812c-6.789063 5.246094-14.25 9.554688-22.1875 12.820313v39.746094h-73.945313v-39.746094c-7.933593-3.273437-15.394531-7.59375-22.183593-12.847656l-34.4375 19.882812-36.972657-64.039062 34.355469-19.828125c-.15625-1.199219-.128906-2.410156-.238281-3.613282h-264.035156v204.015626c3.066406-.402344 6.152344-.617188 9.246094-.636719h92.429687c23.414063.023437 45.425781 11.152343 59.324219 29.996093 8.890625-18.308593 30.941406-25.945312 49.25-17.050781 3.914062 1.898438 7.464844 4.480469 10.480468 7.621094l38.476563 39.921875 58.761719 60.941406h79.492187v-73.945312h64.699219v-177.371094l-8.085938 14.015625zm-345.699219 117.269532h-18.484375v-18.488282h18.484375zm0-36.972656h-18.484375v-18.488282h18.484375zm0-36.976563h-18.484375v-18.484375h18.484375zm0-36.972656h-18.484375v-18.484375h18.484375zm36.972656 0h-18.484374v-18.484375h18.484374zm36.972657 0h-18.484375v-18.484375h18.484375zm18.488281 0v-18.484375h18.488281v18.484375zm27.730469 110.921875h-18.488281v-18.488282h18.488281zm27.730469-110.921875h-18.488282v-18.484375h18.488282zm36.972656 157.136719h-18.488282v-18.488282h18.488282zm36.972656 0h-18.488281v-18.488282h18.488281zm36.972656 0h-18.488281v-18.488282h18.488281zm36.972656 0h-18.488281v-18.488282h18.488281zm0-36.972657h-18.488281v-18.488281h18.488281zm0-36.972656h-18.488281v-18.488281h18.488281zm0 0"/><path d="m406.699219 147.890625c16.808593-.0625 31.460937-11.453125 35.660156-27.730469h-71.320313c4.203126 16.277344 18.855469 27.667969 35.660157 27.730469zm0 0"/></svg>