<svg height="512pt" viewBox="0 -5 512.00035 512" width="512pt" xmlns="http://www.w3.org/2000/svg"><path d="m391.71875 170.3125c28.214844 0 51.09375-22.875 51.09375-51.09375s-22.878906-51.09375-51.09375-51.09375c-28.21875 0-51.09375 22.875-51.09375 51.09375.027344 28.207031 22.886719 51.066406 51.09375 51.09375zm0-17.03125c-15.488281-.058594-28.984375-10.554688-32.855469-25.546875h65.707031c-3.871093 14.992187-17.367187 25.488281-32.851562 25.546875zm0-68.125c15.484375.058594 28.980469 10.554688 32.851562 25.546875h-65.707031c3.871094-14.992187 17.367188-25.488281 32.855469-25.546875zm0 0"/><path d="m502.417969 143.804688v-33.101563h-21.882813c-.109375-1.105469-.078125-2.1875-.230468-3.304687l31.695312-18.292969-34.0625-58.996094-31.71875 18.320313c-6.253906-4.835938-13.128906-8.808594-20.441406-11.8125v-36.617188h-68.121094v36.617188c-7.3125 3.015624-14.1875 6.996093-20.4375 11.835937l-31.722656-18.339844-34.0625 58.996094 31.652344 18.265625c-.144532 1.105469-.117188 2.222656-.21875 3.328125h-260.289063v209.390625c-25.707031 10.421875-42.5390625 35.371094-42.578125 63.109375v68.125c0 30.5625 23.953125 51.09375 59.609375 51.09375h102.1875c35.652344 0 59.609375-20.53125 59.609375-51.09375v-7.351563h52.914062l34.140626 35.453126c.058593.066406.144531.082031.210937.152343.472656.398438.984375.75 1.527344 1.046875.425781.304688.878906.570313 1.351562.800782.078125 0 .121094.09375.195313.117187l53.855468 19.066406c.914063.320313 1.875.484375 2.84375.488281 4.703126 0 8.515626-3.8125 8.515626-8.515624 0-.867188-.132813-1.730469-.394532-2.554688l-14.398437-46.054688h73.34375l66.910156-73.34375v-204.714843l9.578125-16.589844zm-17.03125-9.835938-5.039063-2.90625c.144532-1.105469.117188-2.222656.222656-3.328125h4.816407zm-190.679688-51.09375 17.03125-29.5 27.421875 15.832031 4.589844-4.078125c7.292969-6.507812 15.835938-11.457031 25.109375-14.546875l5.824219-1.941406v-31.609375h34.0625v31.609375l5.828125 1.941406c9.273437 3.09375 17.824219 8.042969 25.117187 14.554688l4.589844 4.070312 27.414062-15.832031 17.03125 29.5-27.378906 15.804688 1.226563 6.011718c2.011719 9.585938 2.03125 19.484375.058593 29.082032l-1.222656 6.019531 23.976563 13.84375v7.664062l-13.691407 23.71875-27.421874-15.832031-4.589844 4.078125c-7.292969 6.507813-15.835938 11.457031-25.109375 14.546875l-5.824219 1.984375v31.609375h-34.0625v-31.609375l-5.828125-1.941406c-9.273437-3.089844-17.816406-8.039063-25.109375-14.546875l-4.589844-4.078125-27.421875 15.832031-17.03125-29.5 27.320313-15.769531-1.226563-6.023438c-1.953125-9.601562-1.953125-19.5 0-29.105469l1.226563-6.019531zm-277.675781 300.328125c.027344-28.207031 22.886719-51.066406 51.09375-51.09375v35.277344c0 22.808593 15.277344 41.363281 34.0625 41.363281h17.03125c18.785156 0 34.0625-18.554688 34.0625-41.363281v-35.277344c28.207031.027344 51.0625 22.886719 51.09375 51.09375v51.09375h-187.34375zm102.1875-8.515625v-42.578125h17.03125v35.277344c0 13.191406-7.800781 24.332031-17.03125 24.332031h-17.03125c-9.230469 0-17.03125-11.140625-17.03125-24.332031v-35.277344h17.03125v42.578125zm42.578125 110.703125h-102.1875c-20.582031 0-42.578125-8.953125-42.578125-34.0625h187.34375c0 25.109375-21.996094 34.0625-42.578125 34.0625zm59.609375-58.445313v-37.875l36.496094 37.875zm93.40625 34.496094-47.277344-49.046875 24.523438-23.632812 47.28125 49.050781zm-59.097656-61.308594-11.8125-12.265624 24.527344-23.636719 11.808593 12.261719zm-23.628906-24.527343-5.910157-6.128907c-6.53125-6.773437-6.332031-17.554687.441407-24.082031 3.171874-3.0625 7.410156-4.769531 11.820312-4.769531h.324219c4.507812.082031 8.796875 1.957031 11.921875 5.210938l5.910156 6.132812zm98.320312 94.457031 16.945312-16.335938 7.859376 25.113282zm112.40625-59.355469v-34.855469h31.796875zm42.574219-51.886719h-59.609375v68.125h-73.230469l-54.101563-56.132812-35.484374-36.789062c-12.875-13.539063-34.289063-14.082032-47.832032-1.207032-2.980468 2.832032-5.417968 6.1875-7.195312 9.894532-12.804688-17.359376-33.082032-27.613282-54.652344-27.632813h-85.15625c-2.847656.019531-5.691406.214844-8.515625.585937v-187.929687h243.257813c.101562 1.105469.074218 2.222656.21875 3.328125l-31.652344 18.265625 34.0625 58.996094 31.722656-18.316407c6.253906 4.832032 13.125 8.804688 20.4375 11.8125v36.617188h68.125v-36.617188c7.308594-3.015624 14.183594-6.996093 20.4375-11.835937l31.726562 18.316406 7.445313-12.886719v163.40625zm0 0"/><path d="m221.40625 281.015625h17.03125v17.03125h-17.03125zm0 0"/><path d="m110.703125 281.015625h17.03125v17.03125h-17.03125zm0 0"/><path d="m110.703125 178.828125h17.03125v17.03125h-17.03125zm0 0"/><path d="m110.703125 212.890625h17.03125v17.03125h-17.03125zm0 0"/><path d="m110.703125 246.953125h17.03125v17.03125h-17.03125zm0 0"/><path d="m281.015625 323.59375h17.03125v17.03125h-17.03125zm0 0"/><path d="m246.953125 178.828125h17.03125v17.03125h-17.03125zm0 0"/><path d="m212.890625 178.828125h17.03125v17.03125h-17.03125zm0 0"/><path d="m178.828125 178.828125h17.03125v17.03125h-17.03125zm0 0"/><path d="m144.765625 178.828125h17.03125v17.03125h-17.03125zm0 0"/><path d="m383.203125 255.46875h17.03125v17.03125h-17.03125zm0 0"/><path d="m383.203125 289.53125h17.03125v17.03125h-17.03125zm0 0"/><path d="m383.203125 323.59375h17.03125v17.03125h-17.03125zm0 0"/><path d="m349.140625 323.59375h17.03125v17.03125h-17.03125zm0 0"/><path d="m315.078125 323.59375h17.03125v17.03125h-17.03125zm0 0"/></svg>